HIERARCHY
ROOT Hips
{
    OFFSET 0.000000 0.000000 0.000000
    CHANNELS 6 Xposition Yposition Zposition Zrotation Xrotation Yrotation
    JOINT Spine
    {
        OFFSET -0.000000 7.246840 0.000000
        CHANNELS 3 Zrotation Xrotation Yrotation
        JOINT Spine1
        {
            OFFSET -0.000000 20.289354 0.000000
            CHANNELS 3 Zrotation Xrotation Yrotation
            JOINT Neck
            {
                OFFSET -0.000000 20.206032 1.836912
                CHANNELS 3 Zrotation Xrotation Yrotation
                JOINT Head
                {
                    OFFSET -0.000000 12.372654 -1.767522
                    CHANNELS 3 Zrotation Xrotation Yrotation
                    End Site
                    {
                        OFFSET -0.000000 22.094025 0.000000
                    }
                }
            }
            JOINT LeftShoulder
            {
                OFFSET 3.465871 17.201674 -0.568930
                CHANNELS 3 Zrotation Xrotation Yrotation
                JOINT LeftArm
                {
                    OFFSET 14.070313 0.000000 0.000000
                    CHANNELS 3 Zrotation Xrotation Yrotation
                    JOINT LeftForeArm
                    {
                        OFFSET 26.549477 0.000000 0.000000
                        CHANNELS 3 Zrotation Xrotation Yrotation
                        JOINT LeftHand
                        {
                            OFFSET 18.880413 0.000000 0.000000
                            CHANNELS 3 Zrotation Xrotation Yrotation
                            End Site
                            {
                                OFFSET 13.256415 0.000000 0.000000
                            }
                        }
                    }
                }
            }
            JOINT RightShoulder
            {
                OFFSET -3.526370 17.201674 -0.568930
                CHANNELS 3 Zrotation Xrotation Yrotation
                JOINT RightArm
                {
                    OFFSET -14.070313 0.000000 0.000000
                    CHANNELS 3 Zrotation Xrotation Yrotation
                    JOINT RightForeArm
                    {
                        OFFSET -26.549477 0.000000 0.000000
                        CHANNELS 3 Zrotation Xrotation Yrotation
                        JOINT RightHand
                        {
                            OFFSET -18.880413 0.000000 0.000000
                            CHANNELS 3 Zrotation Xrotation Yrotation
                            End Site
                            {
                                OFFSET -13.256415 0.000000 0.000000
                            }
                        }
                    }
                }
            }
        }
    }
    JOINT LeftUpLeg
    {
        OFFSET 8.837609 0.000000 0.000000
        CHANNELS 3 Zrotation Xrotation Yrotation
        JOINT LeftLeg
        {
            OFFSET -0.000000 -41.345005 0.000000
            CHANNELS 3 Zrotation Xrotation Yrotation
            JOINT LeftFoot
            {
                OFFSET -0.000000 -35.500874 0.000000
                CHANNELS 3 Zrotation Xrotation Yrotation
                JOINT LeftToeBase
                {
                    OFFSET -0.000000 -5.744446 13.256415
                    CHANNELS 3 Zrotation Xrotation Yrotation
                    End Site
                    {
                        OFFSET -0.000000 0.000000 3.535044
                    }
                }
            }
        }
    }
    JOINT RightUpLeg
    {
        OFFSET -8.837609 0.000000 0.000000
        CHANNELS 3 Zrotation Xrotation Yrotation
        JOINT RightLeg
        {
            OFFSET -0.000000 -41.345005 0.000000
            CHANNELS 3 Zrotation Xrotation Yrotation
            JOINT RightFoot
            {
                OFFSET -0.000000 -35.500874 0.000000
                CHANNELS 3 Zrotation Xrotation Yrotation
                JOINT RightToeBase
                {
                    OFFSET -0.000000 -5.744446 13.256415
                    CHANNELS 3 Zrotation Xrotation Yrotation
                    End Site
                    {
                        OFFSET -0.000000 0.000000 3.535044
                    }
                }
            }
        }
    }
}
MOTION
Frames:    5
Frame Time:    0.010000
4.729949    68.704918    -1.754332    6.296021    1.097737    -5.657774    -7.377128    10.700408    0.558025    -6.842893    11.609039    0.562591    5.487367    19.588535    2.762590    5.163656    -45.342201    5.775338    8.561908    3.484404    9.410675    -63.797012    4.772079    -7.378788    6.676789    -28.734947    -88.490128    -39.186131    -15.242480    -22.368029    -7.768268    3.873248    10.020075    -139.529602    -3.500089    -173.520691    97.972832    -7.871430    -66.820831    -60.231537    49.427212    69.450699    -2.850387    -31.602240    -5.299635    9.851151    70.447182    -19.607332    7.002585    -25.754681    11.808018    -2.327715    -8.029144    3.431972    -4.926579    -35.888256    6.909120    -28.439734    68.653427    27.837572    15.896737    -27.259062    -9.065117    -0.834240    -7.749300    1.638512    
4.800070    68.409447    -1.512270    6.286268    0.103725    -5.629453    -6.313564    10.799444    0.411016    -11.530933    12.808289    1.112294    12.707726    19.862745    3.142220    -0.064918    -45.355366    3.667236    13.715567    4.092262    10.570532    -68.602646    4.876358    -7.874888    7.200736    -28.918140    -87.366325    -38.379269    -15.082687    -22.857107    -2.644009    4.323835    10.839173    -139.529602    -3.500089    -173.520691    97.613068    -3.691326    -63.774685    -55.262844    50.902283    63.903431    -2.958633    -30.729517    -4.450333    11.740594    71.146980    -21.828489    7.612730    -26.289797    12.111490    -2.527459    -8.066669    3.727347    -4.652906    -35.432972    6.940041    -30.451700    70.057564    30.214781    14.407123    -27.645178    -11.021055    -0.757347    -8.000413    1.492311    
4.888277    68.186447    -1.270804    6.373123    -0.597655    -5.520205    -6.637724    11.253321    0.252411    -8.384345    11.474681    0.441525    5.546145    22.871593    2.832526    5.673552    -46.121189    6.336064    8.930034    4.943124    9.957856    -66.279129    4.612798    -6.922873    5.837839    -29.672394    -86.413567    -37.416122    -17.078852    -24.006935    -7.628685    5.023325    11.482773    -137.781876    -3.044867    -173.018127    93.939117    -4.021027    -67.113449    -57.102955    49.330040    64.370331    -3.175343    -29.947060    -3.687946    13.767906    71.368820    -23.749657    7.943914    -26.652658    12.284632    -2.436414    -7.907769    3.589127    -4.694618    -35.009308    6.776224    -31.869421    71.039017    32.094975    13.412259    -27.979239    -12.575855    -0.601025    -8.099420    1.185823    
4.958501    68.035088    -1.093558    6.367515    -0.901064    -5.348710    -7.171557    10.764101    0.659396    -6.841899    12.741400    0.744214    4.534755    21.705399    2.425251    5.554983    -44.610405    5.658846    7.239444    3.499452    10.355806    -66.753693    5.813016    -6.555242    5.401629    -29.989218    -85.635490    -36.596607    -17.889147    -24.555832    -8.077616    3.491263    9.286116    -136.911133    -4.878743    -173.235550    92.658455    -2.240436    -66.955566    -54.182911    51.618523    60.238121    -3.179251    -29.480476    -3.479962    14.208741    71.405724    -24.109568    8.017840    -27.214746    12.026552    -2.408237    -7.677542    3.541938    -4.753472    -34.786144    6.518970    -32.555702    71.602905    32.887669    12.755777    -28.301975    -13.410279    -0.443098    -8.095598    0.874203    
5.037899    67.953842    -0.913050    6.422344    -0.930478    -5.052185    -7.159798    10.313489    0.525845    -6.765141    12.217731    0.603654    4.706304    23.037466    2.390696    5.143436    -43.804161    5.441089    7.099839    3.966949    10.922347    -68.249962    6.581010    -6.352471    5.249913    -29.977057    -84.946121    -35.227295    -18.410934    -24.458649    -7.812715    3.817113    9.115149    -136.911133    -4.878743    -173.235550    90.101631    -0.951877    -68.352180    -52.467480    52.688656    57.665112    -3.253074    -29.164186    -3.836590    13.005085    71.284584    -22.774574    8.162937    -27.976065    11.800990    -2.318868    -7.363187    3.403108    -5.088784    -34.607693    6.017260    -32.864132    71.831917    33.388023    12.351515    -28.741913    -14.013216    -0.379819    -8.054171    0.748962    
